<svg xmlns="http://www.w3.org/2000/svg" width="20" height="20" viewBox="0 0 20 20"><defs><style>.a,.b,.c{fill:none;}.b,.c{stroke:#767676;stroke-linecap:round;stroke-miterlimit:10;}.b{stroke-linejoin:round;}</style></defs><rect class="a" width="20" height="20"/><g transform="translate(2.454 1.184)"><g transform="translate(0 4.09)"><g transform="translate(0 2.454)"><path class="b" d="M15.226,18.317a1.641,1.641,0,0,1-1.636,1.636H2.136A1.641,1.641,0,0,1,.5,18.317V10.136A1.641,1.641,0,0,1,2.136,8.5H13.589a1.641,1.641,0,0,1,1.636,1.636Z" transform="translate(-0.5 -8.5)"/><g transform="translate(6.546 3.271)"><circle class="c" cx="1" cy="1" r="1"/><line class="c" y2="2" transform="translate(1 2)"/></g></g><g transform="translate(3.272)"><line class="b" y2="2.127" transform="translate(8.181)"/><line class="b" y1="2.372"/></g></g><path class="b" d="M4.5,4.59a4.09,4.09,0,0,1,8.181,0" transform="translate(-1.228 -0.5)"/></g></svg>