<svg xmlns="http://www.w3.org/2000/svg" width="99.813" height="38.378" viewBox="0 0 99.813 38.378"><path d="M82.444,7.041a2.329,2.329,0,0,0,2.246-2.2A2.323,2.323,0,0,0,82.444,2.5,2.236,2.236,0,0,0,80.2,4.746,2.135,2.135,0,0,0,82.444,7.041Z" transform="translate(-40.174 -1.252)"/><path d="M72.846,19.591A2.246,2.246,0,1,0,70.6,17.3,2.247,2.247,0,0,0,72.846,19.591Z" transform="translate(-35.367 -7.564)"/><path d="M87.7,17.244A2.272,2.272,0,1,0,90.044,15.1,2.23,2.23,0,0,0,87.7,17.244Z" transform="translate(-43.932 -7.562)"/><path d="M54.945,32.7H54a7.566,7.566,0,0,0-6.587,4.192c-.948,1.7-1.8,3.493-2.695,5.19-.1.25-.349.549-.549.549-.948.05-1.946.05-3.044.05,1.3-2.745,2.545-5.34,3.793-7.935a7.581,7.581,0,0,0-7.536,4.192c-.549,1.048-1.048,2.146-1.6,3.244-.1.2-.349.5-.549.5-1,.05-2,0-3.144,0,.948-1.946,1.846-3.743,2.845-5.739a20.845,20.845,0,0,0-2.894.449,8.487,8.487,0,0,0-5.24,4.641,1.079,1.079,0,0,1-1.1.7c-2.645-.05-5.29,0-7.935,0H15.82c.948-1.946,1.846-3.743,2.795-5.539a7.591,7.591,0,0,0-7.436,4.042c-1.2,2.246-2.3,4.541-3.543,6.737a12.9,12.9,0,0,1-1.7,2.5A7.892,7.892,0,0,1,0,52.762a7.37,7.37,0,0,0,9.981.1,10.582,10.582,0,0,0,2.346-3.194c.6-1.4,1.4-1.747,2.894-1.747,10.48.05,21.01.05,31.49.05a1.109,1.109,0,0,0,1.2-.749c2.2-4.591,4.442-9.133,6.687-13.674C54.7,33.3,54.8,33.049,54.945,32.7Z" transform="translate(0 -16.381)"/><path d="M146.222,16.169a7.723,7.723,0,0,0-8.634,4.841,8.763,8.763,0,0,0-.15,5.19h-9.682l2.845-5.689c-1.048.15-1.9.2-2.695.4a8.549,8.549,0,0,0-5.44,4.641c-.15.3-.4.7-.649.7-2.645.05-5.29.05-8.085.05,4.192-8.833,8.334-17.517,12.476-26.25-.05,0-.1,0-.1-.05-4.99,3.194-9.981,6.438-15.171,9.731h5.09c-3.593,7.336-7.136,14.522-10.73,21.808.349,0,.6.05.848.05h38.177a9.942,9.942,0,0,0,2.1-.2,7.762,7.762,0,0,0-.2-15.221Zm-1.4,10.63a2.918,2.918,0,0,1-2.944-2.944,2.865,2.865,0,0,1,2.894-2.894,2.92,2.92,0,0,1,.05,5.839Z" transform="translate(-52.75)"/><path d="M139.446,67.9a2.176,2.176,0,0,0-2.246,2.246,2.236,2.236,0,0,0,2.246,2.246,2.3,2.3,0,0,0,2.246-2.246A2.236,2.236,0,0,0,139.446,67.9Z" transform="translate(-68.73 -34.015)"/><g transform="translate(4.641 10.63)"><path d="M10.847,25.941V21.849H9.3V21.3h3.643v.549H11.4v4.092Z" transform="translate(-9.3 -21.3)"/><path d="M17.9,25.941V21.3h.9l1.1,3.294c.1.3.15.549.2.7.05-.15.15-.4.25-.749l1.1-3.244h.848v4.641h-.6V22.049l-1.347,3.893H19.8L18.449,22v3.942Z" transform="translate(-13.608 -21.3)"/></g></svg>