<svg xmlns="http://www.w3.org/2000/svg" width="9.625" height="9.625" viewBox="0 0 9.625 9.625"><defs><style>.a{fill:#2867b2;}</style></defs><path class="a" d="M2.154,0V-6.426h-2V0Zm-1-7.3A1.165,1.165,0,0,0,2.311-8.469,1.156,1.156,0,0,0,1.156-9.625,1.156,1.156,0,0,0,0-8.469,1.165,1.165,0,0,0,1.156-7.3ZM9.623,0h0V-3.53c0-1.727-.371-3.057-2.391-3.057A2.1,2.1,0,0,0,5.346-5.549H5.318v-.877H3.4V0H5.4V-3.182c0-.838.159-1.648,1.2-1.648,1.022,0,1.037.956,1.037,1.7V0Z" transform="translate(0 9.625)"/></svg>