<svg xmlns="http://www.w3.org/2000/svg" width="21" height="15.75" viewBox="0 0 21 15.75"><defs><style>.a{fill:#767676;}</style></defs><path class="a" d="M10.172-1.312H-9.188V-15.422a.328.328,0,0,0-.328-.328h-.656a.328.328,0,0,0-.328.328V-.656A.656.656,0,0,0-9.844,0H10.172A.328.328,0,0,0,10.5-.328V-.984A.328.328,0,0,0,10.172-1.312ZM-6.467-7.587a.328.328,0,0,0,0,.464L-6-6.659a.328.328,0,0,0,.464,0l2.981-2.954L.916-6.139a.656.656,0,0,0,.928,0L5.681-9.975,7.487-8.169a.975.975,0,0,0,.7.294,1,1,0,0,0,1-1v-4.9a.664.664,0,0,0-.664-.664h-4.9a1,1,0,0,0-.7,1.7L4.753-10.9,1.381-7.531-2.091-11a.656.656,0,0,0-.926,0ZM4.387-13.125H7.875v3.488Z" transform="translate(10.5 15.75)"/></svg>