<?xml version="1.0" encoding="utf-8"?>
<!-- Generator: Adobe Illustrator 21.0.0, SVG Export Plug-In . SVG Version: 6.00 Build 0)  -->
<svg version="1.1" id="Layer_1" xmlns="http://www.w3.org/2000/svg" xmlns:xlink="http://www.w3.org/1999/xlink" x="0px" y="0px"
	 viewBox="0 0 512 512" style="enable-background:new 0 0 512 512;" xml:space="preserve">
<g>
	<g>
		<g>
			<path d="M0,256c0,141.2,114.8,256,256,256s256-114.8,256-256S397.2,0,256,0C114.8,0,0,114.8,0,256z M21.3,256
				C21.3,126.6,126.6,21.3,256,21.3S490.7,126.6,490.7,256S385.4,490.7,256,490.7S21.3,385.4,21.3,256z"/>
			<path d="M205.8,146.2L315.6,256L205.8,365.8c-4.2,4.2-4.2,10.9,0,15.1c2.1,2.1,4.8,3.1,7.5,3.1s5.5-1,7.5-3.1l117.3-117.3
				c4.2-4.2,4.2-10.9,0-15.1L220.9,131.1c-4.2-4.2-10.9-4.2-15.1,0C201.6,135.3,201.6,142,205.8,146.2z"/>
		</g>
	</g>
</g>
</svg>
