<svg xmlns="http://www.w3.org/2000/svg" width="16.474" height="16.474" viewBox="0 0 16.474 16.474"><defs><style>.a{fill:#4267b2;}.b{fill:#fff;}</style></defs><g transform="translate(0)"><path class="a" d="M15.564,0H.908A.909.909,0,0,0,0,.909V15.565a.909.909,0,0,0,.909.909H15.564a.909.909,0,0,0,.909-.909h0V.909A.909.909,0,0,0,15.564,0Zm0,0" transform="translate(0 0)"/><path class="b" d="M211.714,91.31V84.939h2.148l.322-2.494h-2.469V80.858c0-.72.2-1.211,1.233-1.211h1.309V77.422a17.6,17.6,0,0,0-1.918-.1,3,3,0,0,0-3.2,3.286v1.835H207v2.494h2.14V91.31Zm0,0" transform="translate(-200.34 -74.836)"/></g></svg>