<svg xmlns="http://www.w3.org/2000/svg" width="549" height="333" viewBox="0 0 549 333"><defs><style>.a,.c,.d{fill:none;}.b{fill:#a3a3a3;font-size:10px;font-family:Roboto-Regular, Roboto;}.c{stroke:#f0f0f0;}.d{stroke:#a6cee3;stroke-width:2px;}.e{fill:#a6cee3;stroke:rgba(0,0,0,0);}.f{stroke:none;}</style></defs><g transform="translate(-694 -2831)"><rect class="a" width="546" height="330" transform="translate(694 2831)"/><text class="b" transform="translate(716 3161)"><tspan x="-9.502" y="0">Text</tspan></text><text class="b" transform="translate(832 3161)"><tspan x="-9.502" y="0">Text</tspan></text><text class="b" transform="translate(948 3161)"><tspan x="-9.502" y="0">Text</tspan></text><text class="b" transform="translate(1065 3161)"><tspan x="-9.502" y="0">Text</tspan></text><text class="b" transform="translate(1181 3161)"><tspan x="-9.502" y="0">Text</tspan></text><text class="b" transform="translate(694 3136)"><tspan x="6.385" y="10">0</tspan></text><text class="b" transform="translate(694 3102)"><tspan x="0.77" y="10">10</tspan></text><text class="b" transform="translate(694 3068)"><tspan x="0.77" y="10">20</tspan></text><text class="b" transform="translate(694 3034)"><tspan x="0.77" y="10">30</tspan></text><text class="b" transform="translate(694 3000)"><tspan x="0.77" y="10">40</tspan></text><text class="b" transform="translate(694 2966)"><tspan x="0.77" y="10">50</tspan></text><text class="b" transform="translate(694 2932)"><tspan x="0.77" y="10">60</tspan></text><text class="b" transform="translate(694 2898)"><tspan x="0.77" y="10">70</tspan></text><text class="b" transform="translate(694 2864)"><tspan x="0.77" y="10">80</tspan></text><text class="b" transform="translate(694 2831)"><tspan x="0.77" y="10">90</tspan></text><path class="c" d="M716,2836v305"/><path class="c" d="M832,2836v305"/><path class="c" d="M948,2836v305"/><path class="c" d="M1065,2836v305"/><path class="c" d="M1181,2836v305"/><path class="c" d="M1240,2836v305"/><path class="c" d="M716,3141h524"/><path class="c" d="M716,3107h524"/><path class="c" d="M716,3073h524"/><path class="c" d="M716,3039h524"/><path class="c" d="M716,3005h524"/><path class="c" d="M716,2971h524"/><path class="c" d="M716,2937h524"/><path class="c" d="M716,2903h524"/><path class="c" d="M716,2869h524"/><path class="c" d="M716,2836h524"/><path class="d" d="M716,3124s29-278,58-278,29,173,58,173,29-150,58-150,29,11,58,11,29,111,59,111c29,0,29-61,58-61s29-57,58-57,29-34,58-34,58,220,58,220"/><g class="e" transform="translate(712 3120)"><circle class="f" cx="4" cy="4" r="4"/><circle class="a" cx="4" cy="4" r="3.5"/></g><g class="e" transform="translate(770 2842)"><circle class="f" cx="4" cy="4" r="4"/><circle class="a" cx="4" cy="4" r="3.5"/></g><g class="e" transform="translate(828 3015)"><circle class="f" cx="4" cy="4" r="4"/><circle class="a" cx="4" cy="4" r="3.5"/></g><g class="e" transform="translate(886 2865)"><circle class="f" cx="4" cy="4" r="4"/><circle class="a" cx="4" cy="4" r="3.5"/></g><g class="e" transform="translate(944 2876)"><circle class="f" cx="4" cy="4" r="4"/><circle class="a" cx="4" cy="4" r="3.5"/></g><g class="e" transform="translate(1003 2987)"><circle class="f" cx="4" cy="4" r="4"/><circle class="a" cx="4" cy="4" r="3.5"/></g><g class="e" transform="translate(1061 2926)"><circle class="f" cx="4" cy="4" r="4"/><circle class="a" cx="4" cy="4" r="3.5"/></g><g class="e" transform="translate(1119 2869)"><circle class="f" cx="4" cy="4" r="4"/><circle class="a" cx="4" cy="4" r="3.5"/></g><g class="e" transform="translate(1177 2835)"><circle class="f" cx="4" cy="4" r="4"/><circle class="a" cx="4" cy="4" r="3.5"/></g><g class="e" transform="translate(1235 3055)"><circle class="f" cx="4" cy="4" r="4"/><circle class="a" cx="4" cy="4" r="3.5"/></g></g></svg>