<svg xmlns="http://www.w3.org/2000/svg" width="13.562" height="13.562" viewBox="0 0 13.562 13.562"><defs><style>.a{fill:#bababa;}</style></defs><path class="a" d="M6.781-12.031A6.78,6.78,0,0,0,0-5.25,6.78,6.78,0,0,0,6.781,1.531,6.78,6.78,0,0,0,13.562-5.25,6.78,6.78,0,0,0,6.781-12.031Zm4.9,4.375H9.846a9.112,9.112,0,0,0-.853-2.589A5.482,5.482,0,0,1,11.684-7.656Zm-4.9-3.062c.509,0,1.329,1.127,1.728,3.062H5.053C5.452-9.592,6.273-10.719,6.781-10.719ZM1.312-5.25a5.537,5.537,0,0,1,.109-1.094H3.546c-.027.358-.046.719-.046,1.094s.019.736.046,1.094H1.422A5.537,5.537,0,0,1,1.312-5.25Zm.566,2.406H3.716A9.112,9.112,0,0,0,4.569-.254,5.482,5.482,0,0,1,1.879-2.844ZM3.716-7.656H1.879a5.482,5.482,0,0,1,2.691-2.589A9.112,9.112,0,0,0,3.716-7.656ZM6.781.219c-.509,0-1.329-1.127-1.728-3.062H8.512C8.11-.908,7.29.219,6.781.219ZM8.7-4.156H4.864c-.03-.35-.052-.711-.052-1.094s.022-.744.052-1.094H8.7c.03.35.052.711.052,1.094S8.728-4.506,8.7-4.156Zm.3,3.9a9.2,9.2,0,0,0,.853-2.589h1.838A5.482,5.482,0,0,1,8.993-.254Zm1.023-3.9c.027-.358.046-.719.046-1.094s-.019-.736-.046-1.094h2.125A5.537,5.537,0,0,1,12.25-5.25a5.537,5.537,0,0,1-.109,1.094Z" transform="translate(0 12.031)"/></svg>