<svg xmlns="http://www.w3.org/2000/svg" width="9.625" height="9.625" viewBox="0 0 9.625 9.625"><defs><style>.a{fill:#767676;}</style></defs><path class="a" d="M1.719-1.719a.688.688,0,0,1,.687.687.688.688,0,0,1-.687.687.688.688,0,0,1-.687-.687A.688.688,0,0,1,1.719-1.719Zm0-1.031A1.719,1.719,0,0,0,0-1.031,1.719,1.719,0,0,0,1.719.687,1.719,1.719,0,0,0,3.437-1.031,1.719,1.719,0,0,0,1.719-2.75ZM9.625.421A9.628,9.628,0,0,0,.266-8.937.258.258,0,0,0,0-8.68v.516a.257.257,0,0,0,.25.258A8.6,8.6,0,0,1,8.593.438a.258.258,0,0,0,.258.25h.516A.258.258,0,0,0,9.625.421ZM6.7.42A6.7,6.7,0,0,0,.267-6.01.258.258,0,0,0,0-5.753v.516a.258.258,0,0,0,.247.257A5.669,5.669,0,0,1,5.667.441a.258.258,0,0,0,.257.247H6.44A.258.258,0,0,0,6.7.42Z" transform="translate(0 8.938)"/></svg>