<svg xmlns="http://www.w3.org/2000/svg" width="7.313" height="13" viewBox="0 0 7.313 13"><path d="M5.38-5.228,2.427-6.071a1.079,1.079,0,0,1-.79-.851,1.042,1.042,0,0,1,1.028-1.2H4.54a1.963,1.963,0,0,1,1.127.358.4.4,0,0,0,.521-.043l.581-.581A.411.411,0,0,0,6.731-9,3.561,3.561,0,0,0,4.54-9.75H4.469v-1.219a.407.407,0,0,0-.406-.406H3.25a.407.407,0,0,0-.406.406V-9.75H2.78a2.752,2.752,0,0,0-2.7,2.021A2.672,2.672,0,0,0,1.932-4.522l2.953.843a1.079,1.079,0,0,1,.79.851,1.042,1.042,0,0,1-1.028,1.2H2.773a1.963,1.963,0,0,1-1.127-.358.4.4,0,0,0-.521.043l-.581.581a.411.411,0,0,0,.038.612A3.55,3.55,0,0,0,2.773,0h.071V1.219a.407.407,0,0,0,.406.406h.812a.407.407,0,0,0,.406-.406V0h.063a2.752,2.752,0,0,0,2.7-2.021A2.672,2.672,0,0,0,5.38-5.228Z" transform="translate(0 11.375)"/></svg>