<svg xmlns="http://www.w3.org/2000/svg" xmlns:xlink="http://www.w3.org/1999/xlink" width="124.18" height="124.18" viewBox="0 0 124.18 124.18"><defs><style>.a,.d{fill:none;}.a{stroke:#fff;stroke-width:5px;}.b{fill:#fff;}.c{stroke:none;}.e{filter:url(#c);}.f{filter:url(#a);}</style><filter id="a" x="0" y="0" width="124.18" height="124.18" filterUnits="userSpaceOnUse"><feOffset input="SourceAlpha"/><feGaussianBlur stdDeviation="4" result="b"/><feFlood flood-opacity="0.502"/><feComposite operator="in" in2="b"/><feComposite in="SourceGraphic"/></filter><filter id="c" x="40.188" y="31.526" width="50.537" height="60.626" filterUnits="userSpaceOnUse"><feOffset input="SourceAlpha"/><feGaussianBlur stdDeviation="4" result="d"/><feFlood flood-opacity="0.502"/><feComposite operator="in" in2="d"/><feComposite in="SourceGraphic"/></filter></defs><g transform="translate(-520 -7090.023)"><g class="f" transform="matrix(1, 0, 0, 1, 520, 7090.02)"><g class="a" transform="translate(12 12)"><circle class="c" cx="50.09" cy="50.09" r="50.09"/><circle class="d" cx="50.09" cy="50.09" r="47.59"/></g></g><g transform="translate(572.188 7133.549)"><g class="e" transform="matrix(1, 0, 0, 1, -52.19, -43.53)"><path class="b" d="M292.512,343.484,269.3,360.016a1.626,1.626,0,0,1-2.569-1.324V325.324A1.626,1.626,0,0,1,269.3,324l23.207,16.533A1.813,1.813,0,0,1,292.512,343.484Z" transform="translate(-214.55 -280.17)"/></g></g></g></svg>