<svg xmlns="http://www.w3.org/2000/svg" width="11" height="8.934" viewBox="0 0 11 8.934"><defs><style>.a{fill:#1da1f2;}</style></defs><path class="a" d="M9.869-6.365A4.846,4.846,0,0,0,11-7.531a4.52,4.52,0,0,1-1.3.349,2.248,2.248,0,0,0,.991-1.242,4.438,4.438,0,0,1-1.431.544,2.249,2.249,0,0,0-1.647-.712A2.253,2.253,0,0,0,5.36-6.338a2.545,2.545,0,0,0,.056.516A6.408,6.408,0,0,1,.768-8.18,2.237,2.237,0,0,0,.461-7.042,2.253,2.253,0,0,0,1.466-5.165,2.27,2.27,0,0,1,.447-5.451v.028A2.255,2.255,0,0,0,2.254-3.211a2.384,2.384,0,0,1-.593.077,2.841,2.841,0,0,1-.426-.035A2.258,2.258,0,0,0,3.343-1.605a4.515,4.515,0,0,1-2.8.963A4.666,4.666,0,0,1,0-.67,6.371,6.371,0,0,0,3.462.342,6.37,6.37,0,0,0,9.876-6.072C9.876-6.17,9.876-6.268,9.869-6.365Z" transform="translate(0 8.592)"/></svg>