<svg xmlns="http://www.w3.org/2000/svg" width="26.254" height="21.004" viewBox="0 0 26.254 21.004"><defs><style>.a{fill:#767676;}</style></defs><path class="a" d="M13.125-12.469a1.969,1.969,0,0,0-2-1.969A2.041,2.041,0,0,0,9.187-12.4v5.623L6.644-3.769a.355.355,0,0,1-.558-.439L7.26-5.82a2,2,0,0,0-.1-2.514,1.968,1.968,0,0,0-3.056.16l-1.739,2.4a5.27,5.27,0,0,0-1.05,3.154V2.3a.329.329,0,0,0,.328.328H2.3A.329.329,0,0,0,2.625,2.3V-2.625A3.975,3.975,0,0,1,3.425-5L5.164-7.4a.654.654,0,0,1,.919-.144.65.65,0,0,1,.144.915L4.971-4.9a.143.143,0,0,0-.021.033c-1.071,1.628,1.39,3.556,2.9,1.739L10.5-6.3v-6.14a.656.656,0,1,1,1.312-.029v6.989a.649.649,0,0,1-.144.41L7.284.41a3.679,3.679,0,0,0-.7,1.854.322.322,0,0,0,.328.357h.656A.328.328,0,0,0,7.9,2.338,2.305,2.305,0,0,1,8.31,1.23L12.7-4.253a1.971,1.971,0,0,0,.431-1.23ZM-4.1-8.17a1.966,1.966,0,0,0-3.056-.16,2,2,0,0,0-.1,2.514L-6.087-4.2a.355.355,0,0,1-.558.439L-9.188-6.772v-5.623a2.041,2.041,0,0,0-1.936-2.038,1.963,1.963,0,0,0-2,1.965V-5.48a1.971,1.971,0,0,0,.431,1.23l4.389,5.484a2.364,2.364,0,0,1,.414,1.107.328.328,0,0,0,.328.283h.656a.322.322,0,0,0,.328-.357A3.642,3.642,0,0,0-7.28.414L-11.669-5.07a.649.649,0,0,1-.144-.41v-6.989a.656.656,0,1,1,1.312.029V-6.3l2.65,3.179c1.513,1.813,3.97-.111,2.9-1.739a.143.143,0,0,1-.021-.033L-6.222-6.624a.657.657,0,0,1,.144-.915A.658.658,0,0,1-5.16-7.4L-3.421-5a3.975,3.975,0,0,1,.8,2.379V2.3a.329.329,0,0,0,.328.328h.656A.329.329,0,0,0-1.308,2.3V-2.621a5.258,5.258,0,0,0-1.05-3.15Zm6.936-2.461a2.163,2.163,0,0,0-1.44-2.781l-2.424-.693a.843.843,0,0,1-.611-.808A.842.842,0,0,1-.8-15.754H.714a1.582,1.582,0,0,1,.927.3.309.309,0,0,0,.4-.049l.468-.468a.333.333,0,0,0-.041-.5,2.884,2.884,0,0,0-1.755-.591H.656v-.984a.329.329,0,0,0-.328-.328H-.328a.329.329,0,0,0-.328.328v.984H-.8A2.153,2.153,0,0,0-2.941-14.7,2.247,2.247,0,0,0-1.28-12.809l2.313.66a.843.843,0,0,1,.611.808A.842.842,0,0,1,.8-10.5H-.71a1.582,1.582,0,0,1-.927-.3.309.309,0,0,0-.4.049l-.468.468a.333.333,0,0,0,.041.5,2.882,2.882,0,0,0,1.76.595h.057V-8.2a.329.329,0,0,0,.328.328H.336A.329.329,0,0,0,.664-8.2v-.984H.722A2.217,2.217,0,0,0,2.834-10.631Z" transform="translate(13.125 18.375)"/></svg>