<svg xmlns="http://www.w3.org/2000/svg" width="13.997" height="14.002" viewBox="0 0 13.997 14.002"><defs><style>.a{fill:#75f8db;}</style></defs><path class="a" d="M12.687-9.625H9.264l.976-1.132a.876.876,0,0,0,0-1.239A.876.876,0,0,0,9-12L7-9.674,5-11.993a.876.876,0,0,0-1.239,0,.876.876,0,0,0,0,1.239l.976,1.129H1.312A1.313,1.313,0,0,0,0-8.312V-.437A1.313,1.313,0,0,0,1.312.875H1.75V1.75H3.062L3.645.875h6.707l.582.875h1.312V.875h.437A1.313,1.313,0,0,0,14-.437V-8.312A1.309,1.309,0,0,0,12.687-9.625ZM10.719-1.094s0,.219-4.594.219c-4.156,0-4.156-.219-4.156-.219s-.219,0-.219-3.281.219-3.281.219-3.281,0-.219,4.156-.219c4.594,0,4.594.219,4.594.219s.219,0,.219,3.281S10.719-1.094,10.719-1.094Zm1.969-2.734a.329.329,0,0,1-.328.328h-.219a.329.329,0,0,1-.328-.328v-.219a.329.329,0,0,1,.328-.328h.219a.329.329,0,0,1,.328.328Zm0-1.75a.329.329,0,0,1-.328.328h-.219a.329.329,0,0,1-.328-.328V-5.8a.329.329,0,0,1,.328-.328h.219a.329.329,0,0,1,.328.328Z" transform="translate(0 12.252)"/></svg>