<svg xmlns="http://www.w3.org/2000/svg" width="11.733" height="8.25" viewBox="0 0 11.733 8.25"><defs><style>.a{fill:#767676;}</style></defs><path class="a" d="M11.809-6.959A1.474,1.474,0,0,0,10.772-8,34.84,34.84,0,0,0,6.187-8.25,34.84,34.84,0,0,0,1.6-8,1.474,1.474,0,0,0,.566-6.959,15.466,15.466,0,0,0,.321-4.117,15.466,15.466,0,0,0,.566-1.274,1.452,1.452,0,0,0,1.6-.247,34.84,34.84,0,0,0,6.187,0a34.84,34.84,0,0,0,4.584-.247,1.452,1.452,0,0,0,1.037-1.027,15.466,15.466,0,0,0,.245-2.842A15.466,15.466,0,0,0,11.809-6.959ZM4.987-2.372V-5.861L8.054-4.117Z" transform="translate(-0.321 8.25)"/></svg>