<svg xmlns="http://www.w3.org/2000/svg" width="22.524" height="22.522" viewBox="0 0 22.524 22.522"><defs><style>.a{opacity:0.8;}.b{fill:#00aac7;}</style></defs><g class="a"><path class="b" d="M16.189,104.059H2.581A2.583,2.583,0,0,1,0,101.478V87.87a2.583,2.583,0,0,1,2.581-2.581h7.977a.7.7,0,0,1,0,1.408H2.581A1.175,1.175,0,0,0,1.408,87.87v13.608a1.175,1.175,0,0,0,1.173,1.173H16.189a1.175,1.175,0,0,0,1.173-1.173V93.5a.7.7,0,1,1,1.408,0v7.977A2.583,2.583,0,0,1,16.189,104.059Zm0,0" transform="translate(0 -81.537)"/><path class="b" d="M171.849,14.992a.7.7,0,0,1-.69-.842l.664-3.318a.7.7,0,0,1,.192-.359l9.72-9.719A2.58,2.58,0,1,1,185.384,4.4l-9.719,9.72a.7.7,0,0,1-.359.192l-3.318.663a.693.693,0,0,1-.139.014Zm3.318-1.367h0Zm-2.006-2.308-.414,2.074,2.073-.415,9.569-9.569a1.173,1.173,0,0,0-1.659-1.659Zm0,0" transform="translate(-163.616 0.001)"/><path class="b" d="M380.365,46.673a.7.7,0,0,1-.5-.207l-2.654-2.655a.7.7,0,1,1,1-1l2.654,2.655a.7.7,0,0,1-.5,1.2Zm0,0" transform="translate(-360.423 -40.735)"/></g></svg>