<svg xmlns="http://www.w3.org/2000/svg" xmlns:xlink="http://www.w3.org/1999/xlink" width="24" height="17" viewBox="0 0 24 17"><defs><style>.a,.i,.j,.m,.r,.t{fill:none;}.b{fill:#ce1126;}.c,.d,.e,.h,.k,.l,.n,.o,.q{fill:#fff;}.d,.e,.g,.h,.i,.j,.k,.l,.m,.n,.o,.q,.r,.s,.t{stroke:#c09300;}.d,.e,.h,.i,.j,.k,.l,.m,.n{stroke-linecap:round;stroke-linejoin:round;}.d{stroke-width:0.067px;}.e,.q,.r,.s{stroke-width:0.036px;}.f,.g,.s{fill:#c09300;}.g{stroke-linecap:square;stroke-width:0.03px;}.h{stroke-width:0.034px;}.i,.k{stroke-width:0.036px;}.j{stroke-width:0.036px;}.l{stroke-width:0.036px;}.m,.n{stroke-width:0.025px;}.o{stroke-width:0.033px;}.p{clip-path:url(#a);}.t{stroke-width:0.026px;}</style><clipPath id="a"><path class="a" d="M150.771,99.094h-.024a1.509,1.509,0,0,1-.741-.225,1.722,1.722,0,0,1-.753.225l-.024,0a1.121,1.121,0,0,0,0,.117,2.053,2.053,0,0,0,.07.412,2.021,2.021,0,0,0,.7,1.053,2.009,2.009,0,0,0,.7-1.054,2.054,2.054,0,0,0,.071-.412,1.073,1.073,0,0,0,0-.115Z" transform="translate(-149.229 -98.87)"/></clipPath></defs><g transform="translate(-138.089 -91.5)"><rect width="24" height="5.667" transform="translate(138.089 102.833)"/><rect class="b" width="24" height="5.667" transform="translate(138.089 91.5)"/><rect class="c" width="24" height="5.667" transform="translate(138.089 97.167)"/><path class="d" d="M150,102.658a6.014,6.014,0,0,0,1.423-.134c.134-.024.134-.094.134-.183.134-.045.065-.2.158-.2-.093.024-.113-.159-.227-.134,0-.159-.159-.179-.293-.135a4.479,4.479,0,0,1-1.2.11,5.527,5.527,0,0,1-1.2-.11c-.134-.044-.293-.024-.293.135-.114-.025-.134.158-.227.134.093,0,.024.158.158.2,0,.089,0,.159.138.183a5.954,5.954,0,0,0,1.419.134Z" transform="translate(0.089)"/><path class="e" d="M150.023,100.068l1.94,1.8-.138-3.271c-.02-.5-.451-.382-.764-.2a8.192,8.192,0,0,1-2.122,0c-.313-.179-.744-.293-.764.2l-.138,3.271,1.986-1.8Z" transform="translate(0.089)"/><path class="f" d="M150.565,99.029l.065,1.577.183.179-.069-1.736a.477.477,0,0,1-.179-.02Z" transform="translate(0.094)"/><path class="g" d="M150.09,100.427l.272,1.239-.09.09-.093-.069-.155-1.106.066,1.106-.09.114-.089-.114.065-1.106-.155,1.106-.093.069-.09-.09.273-1.239Z" transform="translate(0.089)"/><path class="f" d="M148.4,98.484l-.134,3.182-.227.2.138-3.271a.682.682,0,0,1,.223-.114Z" transform="translate(0.075)"/><path class="f" d="M148.671,98.712l-.114,2.662-.228.233.139-3.074c.044.044.179.154.2.179Z" transform="translate(0.077)"/><path class="f" d="M148.919,98.915l-.09,2.22-.182.179.113-2.533c.045.044.134.109.159.134Z" transform="translate(0.08)"/><path class="f" d="M149.187,99.029l-.089,1.892-.179.145.089-2.106a.66.66,0,0,0,.179.069Z" transform="translate(0.082)"/><path class="f" d="M149.435,99.029l-.065,1.577-.183.179.069-1.736a.477.477,0,0,0,.179-.02Z" transform="translate(0.084)"/><path class="f" d="M151.6,98.484l.134,3.182.227.2-.138-3.271a.682.682,0,0,0-.223-.114Z" transform="translate(0.102)"/><path class="f" d="M151.329,98.712l.114,2.662.228.233-.139-3.074c-.044.044-.179.154-.2.179Z" transform="translate(0.1)"/><path class="f" d="M151.081,98.915l.09,2.22.182.179-.113-2.533c-.045.044-.134.109-.159.134Z" transform="translate(0.098)"/><path class="f" d="M150.813,99.029l.089,1.892.179.145-.089-2.106a.66.66,0,0,1-.179.069Z" transform="translate(0.096)"/><path class="h" d="M149.39,99.882l-.54,1.918.744.114.317-1.443-.521-.589Z" transform="translate(0.084)"/><path class="h" d="M150.61,99.882l.54,1.918-.744.114-.317-1.443.521-.589Z" transform="translate(0.094)"/><path class="i" d="M150.788,100.537l-.065.158-.351-.336" transform="translate(0.093)"/><path class="j" d="M150.161,100.917l.247.375m-.077.374.08-.373.069-.381.165.224.073-.258.231.238-.118.432-.162-.268-.09.273-.166-.26" transform="translate(0.093)"/><path class="i" d="M149.211,100.537l.066.158.351-.336" transform="translate(0.084)"/><path class="i" d="M149.455,100.139l.073.69.224-.292" transform="translate(0.086)"/><path class="i" d="M149.663,100.65l.122.422" transform="translate(0.087)"/><path class="j" d="M149.833,100.917l-.247.375m.077.374-.079-.373-.069-.381-.166.224-.073-.258-.231.238.118.432.162-.268.09.273.167-.26" transform="translate(0.084)"/><path class="i" d="M149.008,101.756l.15-.211.1.325.134-.228.09.272" transform="translate(0.083)"/><path class="i" d="M151,101.756l-.15-.211-.1.325-.134-.228-.09.272" transform="translate(0.094)"/><path class="k" d="M149.232,101.8a2.268,2.268,0,0,0,.545.025c.089,0,.154.154-.025.179a2.121,2.121,0,0,1-.54-.025c-.114-.02-.362-.065-.521-.11-.158-.069-.044-.2.045-.182a3.012,3.012,0,0,0,.5.113Z" transform="translate(0.083)"/><path class="k" d="M150.768,101.8a2.238,2.238,0,0,1-.54.025c-.094,0-.159.154.02.179a2.127,2.127,0,0,0,.541-.025c.113-.02.361-.065.52-.11.158-.069.045-.2-.045-.182a3.012,3.012,0,0,1-.5.113Z" transform="translate(0.095)"/><path class="l" d="M148.671,101.711a.157.157,0,0,0-.159.224c.021-.045.114-.045.135-.09.024-.069-.021-.069.024-.134Z" transform="translate(0.078)"/><path class="k" d="M149.211,102.127c0-.09.09-.079.09-.168,0-.045-.024-.114-.069-.114a.1.1,0,0,0-.09.09C149.122,102.024,149.211,102.037,149.211,102.127Z" transform="translate(0.083)"/><path class="k" d="M149.855,101.869c.134,0,.121.179.056.269,0-.065-.114-.09-.114-.134,0-.07.1-.07.058-.135Z" transform="translate(0.088)"/><path class="l" d="M151.329,101.711a.157.157,0,0,1,.159.224c-.021-.045-.114-.045-.135-.09-.024-.069.021-.069-.024-.134Z" transform="translate(0.099)"/><path class="k" d="M150.788,102.127c0-.09-.089-.079-.089-.168,0-.045.025-.114.069-.114a.1.1,0,0,1,.09.09c.02.089-.069.1-.069.192Z" transform="translate(0.095)"/><path class="k" d="M150.145,101.869c-.134,0-.121.179-.056.269,0-.065.114-.09.114-.134C150.2,101.934,150.1,101.934,150.145,101.869Z" transform="translate(0.09)"/><path class="m" d="M148.716,101.756a.226.226,0,0,1,.134.044Z" transform="translate(0.08)"/><path class="m" d="M148.939,101.825a.481.481,0,0,1,.158.045Z" transform="translate(0.081)"/><path class="m" d="M149.752,101.914a.378.378,0,0,0-.158.02Z" transform="translate(0.086)"/><path class="m" d="M149.5,101.914a.181.181,0,0,0-.158,0Z" transform="translate(0.084)"/><path class="n" d="M151.285,101.756a.236.236,0,0,0-.135.044Z" transform="translate(0.098)"/><path class="n" d="M151.061,101.825a.481.481,0,0,0-.158.045Z" transform="translate(0.096)"/><path class="n" d="M150.248,101.914a.378.378,0,0,1,.158.02Z" transform="translate(0.091)"/><path class="n" d="M150.5,101.914a.181.181,0,0,1,.158,0Z" transform="translate(0.093)"/><path class="i" d="M150.549,100.139l-.073.69-.224-.292" transform="translate(0.092)"/><path class="o" d="M150,100.772a2.158,2.158,0,0,0,.846-1.754.351.351,0,0,1-.072.007,1.372,1.372,0,0,1-.765-.251,1.575,1.575,0,0,1-.781.251.344.344,0,0,1-.072-.007,2.156,2.156,0,0,0,.844,1.754Z" transform="translate(0.089)"/><path class="c" d="M150.771,99.094h-.024a1.509,1.509,0,0,1-.741-.225,1.708,1.708,0,0,1-.753.225l-.024,0a1.121,1.121,0,0,0,0,.117,2.053,2.053,0,0,0,.07.412,2.015,2.015,0,0,0,.7,1.053,2.01,2.01,0,0,0,.7-1.053,2.063,2.063,0,0,0,.071-.413c0-.036,0-.076,0-.115Z" transform="translate(0.089)"/><g transform="translate(149.317 98.87)"><g class="p"><rect class="f" width="0.668" height="2.303" transform="translate(-0.198 -0.247)"/><rect class="f" width="0.703" height="2.303" transform="translate(1.054 -0.247)"/></g></g><path class="i" d="M150.329,100.65l-.122.422" transform="translate(0.091)"/><path class="f" d="M148.678,102.113a.022.022,0,0,1-.019-.029c0-.017.018-.027.031-.022s.024.018.024.023-.008.022-.012.022l0,0a.022.022,0,0,1-.019,0Zm1.556.111a.032.032,0,0,1-.014-.02c0-.011.016-.029.026-.029a.06.06,0,0,1,.024.012.023.023,0,0,1-.005.034.041.041,0,0,1-.031,0Zm.01.071a.024.024,0,0,1-.017-.024c0-.013,0-.015.015-.023l.01-.006.01,0c.014.006.02.013.02.022a.026.026,0,0,1-.018.025c-.01,0-.01,0-.02,0Zm-1.537-.087c.007-.007.008-.013,0-.016s-.007,0-.015,0-.011.006-.01.01,0,.006.017.007l.008,0Zm.239.124-.035-.008c-.03-.006-.076-.016-.089-.02l-.021-.006a.236.236,0,0,1-.037-.01l-.032-.009-.031-.009-.013,0-.011,0a.081.081,0,0,0-.021,0,.046.046,0,0,1-.034-.016.019.019,0,0,1,0-.024l0-.012,0-.007,0-.006a.1.1,0,0,1,.016-.023.063.063,0,0,1,.032-.015l.012,0a.045.045,0,0,1,.019-.005h.015l.006-.01.005-.016,0-.013.006-.018a.129.129,0,0,1,.013-.042s0-.006,0-.013a.015.015,0,0,0-.011-.007.039.039,0,0,0-.022.008.048.048,0,0,1-.024.013.039.039,0,0,1-.028-.016c0-.007,0-.007,0-.016a.02.02,0,0,1,.011-.011.055.055,0,0,1,.036,0s.007,0,.018,0l.015,0,.011,0,.01,0,.009,0,.01,0,.008,0c.005,0,.007,0,.01.007s0,.008,0,.02l-.007.021a.04.04,0,0,0,0,.015.019.019,0,0,1,0,.013l0,.009,0,.008-.005.016,0,.017,0,.014,0,.012,0,.009,0,.014-.005.018,0,.015-.005.014,0,.015s0,0,0,.01a.058.058,0,0,0,.044.015c.014,0,.015,0,.02-.007a.033.033,0,0,0,.007-.017l0-.015a.065.065,0,0,0,0-.017c0-.011,0-.012-.008-.018s-.008-.006-.005-.011a.025.025,0,0,1,.021-.01l.008,0,.01-.005.013-.009c.009-.008.015-.008.019,0s0,.006,0,.015a.042.042,0,0,0,0,.019.03.03,0,0,1,0,.012l-.005.013-.006.017,0,.016a.053.053,0,0,1,0,.017c-.006.011-.005.019,0,.022l.009,0,.014,0,.018,0,.022,0c.013,0,.014,0,.02,0a.042.042,0,0,0,.008-.019l0-.016a.026.026,0,0,0-.008-.024c-.012-.011-.007-.025.009-.025a.067.067,0,0,0,.029-.012c.013-.012.021-.015.028-.011a.012.012,0,0,1,.005.018l-.006.018-.007.026-.008.031-.007.028,0,.016,0,.014c-.007.017-.018.02-.04.012Zm-.274,0c-.014-.013-.012-.022.009-.038s.014-.006.024,0,.017.023,0,.035a.022.022,0,0,1-.018.007c-.008,0-.011,0-.018-.008Zm.086.027a.024.024,0,0,1-.017-.031c0-.012.005-.014.023-.014s.025,0,.025.021,0,.013-.006.017a.029.029,0,0,1-.025.007Zm2.525,0a.015.015,0,0,1-.008-.015.029.029,0,0,1,.021-.026c.02-.009.027-.008.035,0s.009.024,0,.035-.007.007-.022.007-.016,0-.023-.006Zm-2.41.032a.02.02,0,0,1-.016-.022.017.017,0,0,1,.007-.017.051.051,0,0,1,.017-.007.019.019,0,0,1,.016,0c.016.011.019.022.01.033a.028.028,0,0,1-.034.009Zm.621.028-.008-.007V102.4c0-.009,0-.02,0-.025a.071.071,0,0,0,0-.023.13.13,0,0,1,0-.023.189.189,0,0,0,.006-.04c0-.017,0-.034,0-.037a.056.056,0,0,0,0-.016.108.108,0,0,1,0-.025.157.157,0,0,0,0-.033.155.155,0,0,1,0-.027l0-.011s.007-.017.01-.017l.01.011a.179.179,0,0,0,.019.021c.027.025.026.023.017.031l-.008.006-.008.006s0,.007,0,.016a.059.059,0,0,1,0,.02.3.3,0,0,0-.007.064l0,.014a.146.146,0,0,0,0,.033.26.26,0,0,1,0,.033l0,.011a.062.062,0,0,1-.009.037.017.017,0,0,1-.015,0,.021.021,0,0,1-.018-.007Zm.823-.019.011,0v-.021h-.009a.014.014,0,0,0-.015.005c-.008.008-.009.014,0,.019l.005,0,.011,0Zm-.064.045c-.005-.007-.005-.008,0-.019l0-.026,0-.018,0-.011s0-.009.008-.015l.008-.01.02-.016.007,0,.009,0,.011,0c.006,0,.006,0,.006-.022a.091.091,0,0,0,0-.027l0-.014v-.026c0-.019,0-.022-.008-.027l-.008-.005-.011-.013a.454.454,0,0,1,.044-.042.019.019,0,0,1,.017.008.116.116,0,0,1,0,.027l0,.034c0,.007,0,.028.005.047a.384.384,0,0,0,0,.042.337.337,0,0,1,0,.039.363.363,0,0,0,0,.039.025.025,0,0,0,.033.018l.02-.005c.022,0,.022,0,.02-.034s0-.024-.007-.03l-.011-.008a.013.013,0,0,1-.009-.013.03.03,0,0,1,.017-.018l.014-.009c.012-.01.02-.011.028,0s.005.008.007.035a.1.1,0,0,0,.005.036.082.082,0,0,1,0,.027.085.085,0,0,0,0,.028.014.014,0,0,1,0,.014l-.005.011s0,.006-.024.007l-.025,0-.027,0a.8.8,0,0,0-.11.01s-.009,0-.028,0h-.026l0-.006Zm-.957-.169s.006-.009,0-.01a.025.025,0,0,1-.012-.021c0-.019-.009-.02-.026,0l-.015.014-.008,0,.006.006a.044.044,0,0,0,.035.012.046.046,0,0,0,.02,0Zm.065.2,0,0-.024-.015,0,0-.006-.019c0-.013,0-.023,0-.026s0-.008,0-.011-.009,0-.019,0-.022,0-.029-.007-.006-.008-.008-.019a.028.028,0,0,0-.006-.017s-.01,0-.012,0l-.008,0a.01.01,0,0,0-.008.007l-.008.012c-.005.007-.006.007-.019.007l-.02,0a.126.126,0,0,0-.041-.007c-.033,0-.048,0-.051.008a.078.078,0,0,1-.042.036l-.018,0-.011,0-.025,0c-.023,0-.032-.007-.032-.015s.014-.012.02-.01.016,0,.016,0l.011,0,.014,0,.009,0c.005,0,.007,0,.012-.01l.006-.012.005-.008a.033.033,0,0,0,0-.013.051.051,0,0,1,0-.017c0-.008,0-.01,0-.023l-.007-.016-.006-.009c0-.01,0-.019.016-.035l0-.01a.013.013,0,0,1,.014-.011c.005,0,.015.011.015.017l0,.009a.06.06,0,0,1,.006.023.23.23,0,0,0,.008.047.029.029,0,0,0,.02.016l.018,0,.025,0c.012,0,.013,0,.025-.012l.012-.015c0-.008-.027-.023-.049-.027s-.013-.011-.012-.02a.062.062,0,0,1,.022-.028.115.115,0,0,1,.028-.011l.022-.006.005-.012a.074.074,0,0,1,.054-.039c.009,0,.011,0,.019.01l.009.011a.042.042,0,0,1,.011.031c0,.007,0,.019.006.019a.187.187,0,0,1,.035.034l0,0s.007.014.007.024,0,.017-.026.017a.172.172,0,0,0-.029,0l-.01,0v.011c0,.016,0,.02.02.022l.014,0,.008,0,.01,0s0,.006,0,.029v.026l.007,0,.009.005c.005,0,.012,0,.014-.005l0-.01a.253.253,0,0,0,0-.031.282.282,0,0,1,.005-.035.141.141,0,0,0,0-.032.067.067,0,0,1,.005-.027.115.115,0,0,0,0-.029c0-.021,0-.027,0-.031s0-.008,0-.029v-.025l-.009-.007c0-.005-.008-.009-.008-.012s0-.01.012-.014l.018-.006.011-.006a.047.047,0,0,1,.018-.012l.007,0a.044.044,0,0,1,0,.032.035.035,0,0,0,0,.019.073.073,0,0,1,0,.023.364.364,0,0,0-.005.044.155.155,0,0,1,0,.039.068.068,0,0,0,0,.018.171.171,0,0,1,0,.031l-.005.036a.089.089,0,0,1,0,.025l0,.022a.09.09,0,0,1-.005.022l0,.01a.055.055,0,0,1-.014.025l0,0-.008.006-.013,0a.051.051,0,0,1-.035,0Zm1.788-.161c.013,0,.017-.012.012-.022a.019.019,0,0,0-.021-.01c-.013,0-.023.009-.023.018s0,.008.01.013l.01.006.012,0Zm-.169,0c.009,0,.01,0,.01-.011a.035.035,0,0,0-.021-.027c-.013-.008-.018-.008-.024,0s0,.007,0,.016l0,.012s.013.015.018.015l.015-.005Zm-.076.007a.048.048,0,0,0,0-.017.021.021,0,0,0-.008-.017c-.008-.007-.012-.006-.021,0a.02.02,0,0,0-.007.019c0,.017,0,.019.02.019s.015,0,.016-.007Zm-.169.032c.008,0,.009-.008.008-.017a.016.016,0,0,0-.029-.007l0,.008,0,0v.007l.005,0a.034.034,0,0,0,.024,0Zm.269.024a.01.01,0,0,0,0-.016.027.027,0,0,0-.029,0c-.007,0-.009,0-.009.009l.005.007a.068.068,0,0,0,.032,0Zm-.33.1,0-.014.007,0,.009,0,.014,0a.044.044,0,0,0,.039-.036s0-.009,0-.01a.138.138,0,0,0-.059,0c-.005,0-.007,0-.013-.005l-.007-.007v-.06l.009-.01.014-.018.007-.009.009-.007a.105.105,0,0,1,.034-.019l.008,0,.008,0c.006,0,.007,0,.013.009l.006.015,0,.014.005.02,0,.015a.061.061,0,0,0,.033,0s0-.007.005-.021a.063.063,0,0,1,0-.025l0-.013a.1.1,0,0,1,.029-.04l.012-.008.007,0c.006,0,.008,0,.008-.014s-.007-.017-.02-.028l-.006-.008a.055.055,0,0,1,.016-.028l.009-.012.008-.007c.005,0,.008,0,.012,0s.007,0,.013.022a.242.242,0,0,1,.01.043l0,.015.021.007.024.007.01,0c.007,0,.017.009.017.012l0,0a.127.127,0,0,1,.023.033c.011.02.01.02.028.019s.016,0,.02-.005l0-.011c0-.007.005-.014.019-.026l.013-.012a.053.053,0,0,1,.022-.014l.023.008a.061.061,0,0,1,.026.016.034.034,0,0,0,.044.012l.008,0,0,0a.142.142,0,0,0-.011-.031l-.005-.018a.115.115,0,0,0-.006-.025.091.091,0,0,1-.006-.029.159.159,0,0,0-.006-.034l0-.021a.049.049,0,0,0-.026-.04l-.011-.006a.019.019,0,0,0-.022,0l-.008,0a.033.033,0,0,0-.018.014l-.007,0c-.006,0-.008,0-.014-.008l-.007-.011-.009-.009c-.007-.006-.008-.008-.008-.014s0-.008.005-.01l.005,0,.008,0,.025,0a.162.162,0,0,1,.076,0l.012,0a.085.085,0,0,1,.03.027l0,.008,0,.009,0,.015a.246.246,0,0,1,.009.058c0,.006.005.026.008.038l.006.023a.06.06,0,0,0,.006.018l0,.007c0,.008.022.022.035.022a.067.067,0,0,0,.038-.018.077.077,0,0,1,.016-.011.02.02,0,0,1,.018.009.051.051,0,0,0,.02.018c.009.005.013.012.009.019l-.006,0-.015,0-.015.006-.027.007-.049.013a.391.391,0,0,0-.065.018l-.01,0c-.015,0-.016,0-.017.011a.1.1,0,0,1-.036.037c-.01.005-.012.005-.037.005h-.03l0-.007-.008-.01c-.007,0-.015,0-.032,0l-.008,0v.021a.09.09,0,0,1,0,.025l-.005.009-.013.013-.019.017c-.01.009-.018.01-.024,0l-.009,0a.079.079,0,0,1-.034-.014.074.074,0,0,1-.02-.032l-.005-.007s-.007,0-.017,0l-.023,0-.028,0a.17.17,0,0,0-.026,0l-.016.005c-.013,0-.017.007-.017.02s0,.012,0,.013l0,.009a.069.069,0,0,1-.031.03l-.019.009a.067.067,0,0,1-.032,0,.082.082,0,0,1-.026,0Zm-.168.019,0,0,0-.005.012-.009a.094.094,0,0,0,.037-.022.047.047,0,0,0,.012-.015l.006-.011c.006-.006.006-.007,0-.028a.05.05,0,0,0-.009-.037.094.094,0,0,0-.029-.022.013.013,0,0,1-.007-.02l.013-.025.012-.024c0-.008.013-.008.02,0a.121.121,0,0,1,.016.028l0,.007a.07.07,0,0,1,.015.026l.006.012a.041.041,0,0,1,.005.018l0,.018a.126.126,0,0,1,0,.064l-.006.009-.008.008a.085.085,0,0,1-.035.025l-.006,0s-.005,0-.031.006-.028,0-.032,0Zm-.194.012a.024.024,0,0,1-.009-.017c0-.007,0-.009.008-.016s.019-.013.04,0,.028.011.03,0,.013-.014.024-.014a.021.021,0,0,1,.017.006c.007.005.008.006.008.019s0,.014-.008.021a.018.018,0,0,1-.019.006.021.021,0,0,1-.022-.016c0-.007,0-.009-.006,0l-.007,0a.072.072,0,0,0-.022.014s-.007,0-.015,0-.011,0-.019-.009Zm-.179-.11c.005,0,.006,0,.005-.007l0-.013c0-.009,0-.01-.007-.01a.05.05,0,0,0-.023.012.017.017,0,0,0,0,.016A.033.033,0,0,0,150.133,102.4Zm-.164.062c.005,0,.005-.005.005-.042v-.039l-.005-.005c-.006,0-.008,0-.047-.006l-.049,0a.039.039,0,0,0-.019,0h-.024c-.032-.005-.053,0-.06.011s0,.007,0,.012l.009.007.015,0a.131.131,0,0,0,.033,0h.047l.042,0a.052.052,0,0,1,.023,0l.006,0v.02c0,.019,0,.02,0,.024a.046.046,0,0,0,.016.008l.007,0Zm-.018.065-.012-.007a.091.091,0,0,1-.03-.024.119.119,0,0,1-.01-.032l0-.007c-.015,0-.052-.007-.079-.009l-.07-.005c-.048,0-.066,0-.072,0l-.007.012-.01.017-.008.013,0,0-.006,0a.144.144,0,0,1-.022.015l-.01,0a.205.205,0,0,1-.07,0l-.012,0-.011,0s0,0,0-.009.01-.009.037-.009a.048.048,0,0,0,.029-.006.122.122,0,0,0,.03-.022l.005-.005,0-.011.005-.015c.005-.009.005-.015,0-.038a.079.079,0,0,0-.021-.037c-.012-.01-.012-.014,0-.028s.014-.016.018-.022.008-.011.014-.01.007,0,.013.011a.245.245,0,0,1,.019.044l0,.01.005.014c0,.01.006.011.023.012s.019,0,.02-.023l0-.019,0-.006a.136.136,0,0,0-.014-.037.023.023,0,0,1,0-.023l.007-.009.01-.005a.031.031,0,0,1,.034,0c.005,0,.006.006.007.022s0,.018.006.022l.011.005.009,0s.011,0,.045,0a.38.38,0,0,1,.077,0h.061c.025,0,.027,0,.033.008l.006.006v.027c0,.031,0,.035.016.035s.015,0,.016-.017l0-.015.006-.009a.057.057,0,0,1,.025-.026l.009,0,.01,0a.1.1,0,0,0,.036-.013.026.026,0,0,1,.014,0c.009,0,.011,0,.015,0s.006.011.008.039a.1.1,0,0,0,0,.026.285.285,0,0,1,0,.032v.027l-.006.008-.007.009h-.069l-.076,0c-.008,0-.01,0-.009.021a.016.016,0,0,1,0,.011l-.006.009s-.015.015-.024.018l-.008,0a.081.081,0,0,1-.025.012l0,0Z" transform="translate(0.089)"/><path class="q" d="M150.349,98.671c.019,0-.026-.1-.026-.1.05.051.239.063.239.063-.113-.05-.227-.427-.213-.729s-.044-.421-.088-.465a.706.706,0,0,0-.359-.113c-.068,0-.056.051-.056.051a.462.462,0,0,0-.308-.007c-.053.036-.065.213-.026.182.1-.075.177-.006.234.076a.756.756,0,0,1-.026.515,1.721,1.721,0,0,1-.282.5.666.666,0,0,0,.27-.1l-.038.157a.975.975,0,0,0,.213-.144l.114.119a1.089,1.089,0,0,1,.113-.119.407.407,0,0,0,.239.113Z" transform="translate(0.089)"/><path class="r" d="M149.89,97.948a1.674,1.674,0,0,1-.182.6" transform="translate(0.087)"/><path class="r" d="M149.99,97.936a2.285,2.285,0,0,1-.107.622" transform="translate(0.088)"/><path class="r" d="M150.079,97.954a4.557,4.557,0,0,0,.031.6" transform="translate(0.089)"/><path class="r" d="M150.191,97.98a1.691,1.691,0,0,0,.132.59" transform="translate(0.091)"/><path class="s" d="M149.776,97.722a.236.236,0,0,0-.03-.094c-.057-.082-.139-.151-.234-.076,0,0,.033-.1.1-.1s.175.04.281.222c0,0-.078-.018-.1,0-.036.031-.021.052-.021.052Z" transform="translate(0.086)"/><path class="s" d="M149.5,97.429a.111.111,0,0,1,.036-.059.462.462,0,0,1,.308.007s-.012-.055.056-.051a.706.706,0,0,1,.359.113.222.222,0,0,1,.042.068h0c-.028-.039-.107-.037-.125-.035a.6.6,0,0,0-.089.013.18.18,0,0,0-.064.022c-.012.01-.022.046-.041.046s-.028-.007-.035-.016-.016-.03-.026-.029c-.031,0-.081-.019-.144-.069a.2.2,0,0,0-.17-.057.133.133,0,0,0-.107.053l0-.006Z" transform="translate(0.088)"/><path class="c" d="M149.967,97.5a.033.033,0,1,0,0-.066.033.033,0,1,0,0,.066Z" transform="translate(0.088)"/><path class="t" d="M150.771,99.094h-.024a1.509,1.509,0,0,1-.741-.225,1.708,1.708,0,0,1-.753.225l-.024,0a1.121,1.121,0,0,0,0,.117,2.053,2.053,0,0,0,.07.412,2.015,2.015,0,0,0,.7,1.053,2.01,2.01,0,0,0,.7-1.053,2.063,2.063,0,0,0,.071-.413c0-.036,0-.076,0-.115Z" transform="translate(0.089)"/></g></svg>