<svg xmlns="http://www.w3.org/2000/svg" width="199.158" height="57.279" viewBox="0 0 199.158 57.279"><defs><style>.a{font-size:11.6px;font-family:HelveticaNeueW23forSKY-Bd, Helvetica Neue W23 for SKY;}</style></defs><g transform="translate(-1036.083 -45.622)"><g transform="translate(1086.269 45.622)"><path d="M83.551,9.278A3.476,3.476,0,0,0,86.9,6a3.467,3.467,0,0,0-3.352-3.5A3.338,3.338,0,0,0,80.2,5.852,3.186,3.186,0,0,0,83.551,9.278Z" transform="translate(-20.463 -0.638)"/><path d="M73.952,21.8A3.352,3.352,0,1,0,70.6,18.377,3.354,3.354,0,0,0,73.952,21.8Z" transform="translate(-18.015 -3.853)"/><path d="M87.7,18.3a3.392,3.392,0,1,0,3.5-3.2A3.328,3.328,0,0,0,87.7,18.3Z" transform="translate(-22.377 -3.852)"/><path d="M82.007,32.7H80.591a11.292,11.292,0,0,0-9.832,6.257c-1.415,2.532-2.681,5.214-4.022,7.746-.149.372-.521.819-.819.819-1.415.074-2.9.074-4.544.074,1.937-4.1,3.8-7.97,5.661-11.843A11.314,11.314,0,0,0,55.788,42.01c-.819,1.564-1.564,3.2-2.383,4.841-.149.3-.521.745-.819.745-1.49.074-2.979,0-4.692,0,1.415-2.9,2.756-5.586,4.246-8.566a31.11,31.11,0,0,0-4.32.67c-3.724,1.043-6.108,3.65-7.821,6.927a1.611,1.611,0,0,1-1.639,1.043c-3.948-.074-7.9,0-11.843,0h-2.9c1.415-2.9,2.756-5.586,4.171-8.268a11.33,11.33,0,0,0-11.1,6.033C14.9,48.788,13.258,52.215,11.4,55.492a19.249,19.249,0,0,1-2.532,3.724A11.779,11.779,0,0,1,0,62.642a11,11,0,0,0,14.9.149,15.794,15.794,0,0,0,3.5-4.767c.894-2.086,2.086-2.607,4.32-2.607,15.642.074,31.358.074,47,.074A1.655,1.655,0,0,0,71.5,54.375c3.277-6.853,6.629-13.631,9.981-20.409C81.634,33.594,81.783,33.221,82.007,32.7Z" transform="translate(0 -8.344)"/><path d="M166.377,24.133a11.526,11.526,0,0,0-12.886,7.225,13.079,13.079,0,0,0-.223,7.746h-14.45l4.246-8.491c-1.564.223-2.83.3-4.022.6-3.8.968-6.331,3.575-8.119,6.927-.223.447-.6,1.043-.968,1.043-3.948.074-7.9.074-12.066.074,6.257-13.184,12.439-26.144,18.621-39.178-.074,0-.149,0-.149-.074-7.448,4.767-14.9,9.608-22.643,14.524h7.6C115.951,25.473,110.663,36.2,105.3,47.074c.521,0,.894.074,1.266.074h56.98a14.839,14.839,0,0,0,3.128-.3,11.585,11.585,0,0,0-.3-22.718ZM164.291,40A4.356,4.356,0,0,1,159.9,35.6a4.276,4.276,0,0,1,4.32-4.32A4.357,4.357,0,1,1,164.291,40Z" transform="translate(-26.869)"/><path d="M140.552,67.9a3.248,3.248,0,0,0-3.352,3.352,3.338,3.338,0,0,0,3.352,3.352,3.437,3.437,0,0,0,3.352-3.352A3.338,3.338,0,0,0,140.552,67.9Z" transform="translate(-35.008 -17.326)"/><g transform="translate(6.927 15.865)"><path d="M11.609,28.227V22.119H9.3V21.3h5.437v.819H12.428v6.108Z" transform="translate(-9.3 -21.3)"/><path d="M17.9,28.227V21.3h1.341l1.639,4.916c.149.447.223.819.3,1.043.074-.223.223-.6.372-1.117L23.188,21.3h1.266v6.927h-.894v-5.81l-2.011,5.81H20.73l-2.011-5.884v5.884Z" transform="translate(-11.494 -21.3)"/></g></g><text class="a" transform="translate(1036.083 85)"><tspan x="0" y="0">الذكاء المالي</tspan></text></g></svg>