<svg xmlns="http://www.w3.org/2000/svg" width="29.868" height="34.968" viewBox="0 0 29.868 34.968"><g transform="translate(-520.441 -382.465)"><g transform="translate(534.797 382.465)"><g transform="translate(0)"><path d="M254.656,0a8.206,8.206,0,0,0-5.313,2.876,7.127,7.127,0,0,0-1.74,5.538,6.926,6.926,0,0,0,5.361-2.738A7.694,7.694,0,0,0,254.656,0Z" transform="translate(-247.522)"/></g></g><g transform="translate(520.441 390.649)"><path d="M66.192,123.387a8.852,8.852,0,0,0-6.681-3.547c-3.136,0-4.463,1.5-6.642,1.5-2.247,0-3.954-1.5-6.666-1.5a9.07,9.07,0,0,0-7.3,4.413c-2.529,3.921-2.1,11.292,2,17.571,1.466,2.247,3.425,4.773,5.986,4.795,2.279.022,2.922-1.462,6.01-1.477s3.674,1.5,5.949,1.473c2.564-.02,4.629-2.819,6.1-5.066a25.2,25.2,0,0,0,2.258-4.24A7.709,7.709,0,0,1,66.192,123.387Z" transform="translate(-37.336 -119.84)"/></g></g></svg>