<svg xmlns="http://www.w3.org/2000/svg" width="18.001" height="18.001" viewBox="0 0 18.001 18.001"><path d="M-.123.735-4.391-3.533a.417.417,0,0,0-.3-.123h-.464A7.293,7.293,0,0,0-3.375-8.437a7.311,7.311,0,0,0-7.312-7.312A7.311,7.311,0,0,0-18-8.437a7.311,7.311,0,0,0,7.312,7.312A7.293,7.293,0,0,0-5.906-2.9v.464a.432.432,0,0,0,.123.3l4.268,4.268a.422.422,0,0,0,.6,0l.795-.795A.422.422,0,0,0-.123.735ZM-10.688-2.812a5.623,5.623,0,0,1-5.625-5.625,5.623,5.623,0,0,1,5.625-5.625A5.623,5.623,0,0,1-5.063-8.437,5.623,5.623,0,0,1-10.688-2.812Z" transform="translate(18 15.75)"/></svg>