<svg xmlns="http://www.w3.org/2000/svg" width="300.436" height="220.967" viewBox="0 0 300.436 220.967"><defs><style>.a{fill:#fff;}.b{fill:#00aac7;}.c{fill:#f2ba00;}.d{fill:none;stroke:#000;stroke-miterlimit:10;stroke-width:9.61px;}</style></defs><g transform="translate(-939 -577.553)"><g transform="translate(0 -0.447)"><rect class="a" width="300.436" height="220.967" transform="translate(939 578)"/><path class="b" d="M212.619,175.872,41.1,210.207V0H212.619Z" transform="translate(963.273 578)"/></g><g transform="translate(1017.696 659.82)"><path class="a" d="M58.3,166.426V105H71.451c9.844,27.248,13.23,38.43,13.86,41.5h.079c-.551-7.245-.551-16.144-.551-26.224V105h10.4v61.426h-12.6c-10-28.665-13.466-40.793-14.254-43.47H68.3c.473,7.56.473,16.144.473,27.169v16.3Z" transform="translate(-58.3 -104.132)"/><path class="a" d="M154.224,132.328v5.591c0,20.711-6.143,29.374-19.766,29.374-12.679,0-19.058-8.584-19.058-29.453V132.25c0-20.4,7.481-28.35,19.609-28.35C147.688,103.742,154.224,112.641,154.224,132.328Zm-26.933-.473v6.064c0,12.049,1.89,19.451,7.481,19.451,5.906,0,7.56-6.773,7.56-19.451v-6.064c0-11.655-1.654-18.113-7.56-18.113C129.024,113.743,127.291,120.516,127.291,131.856Z" transform="translate(-70.433 -103.897)"/><path class="a" d="M180.746,166.426,169.8,105h12.443c1.733,12.836,4.174,32.367,5.04,44.494h.079c1.89-12.915,5.434-31.422,7.718-44.494H205.4c2.126,12.049,5.749,31.028,7.4,43.943h.158c1.26-13.151,4.1-32.288,5.434-43.943h11.576l-11.734,61.426H206.813c-2.126-12.758-5.355-28.9-7.088-41.5h-.158c-1.733,12.679-5.276,29.847-7.481,41.5Z" transform="translate(-81.993 -104.132)"/></g><path class="c" d="M212.619,254.358H41.1V231.914l77.255-39.139,8.505,8.505,85.76-41.58Z" transform="translate(963.052 544.065)"/><g transform="translate(991 692.267)"><path class="d" d="M24.4,238.275l90.406-45.754,5.67,10.868L209.071,158.5" transform="translate(-24.4 -147.947)"/><g transform="translate(177.426)"><path d="M249.7,145.1l11.5,22.6,5.513-17.01Z" transform="translate(-249.7 -145.1)"/></g></g><g transform="translate(1057.466 770.309)"><path class="a" d="M110.848,246.654H108.8V245h5.906v1.654h-2.048v8.269h-1.89v-8.269Z" transform="translate(-108.8 -244.37)"/><path class="a" d="M117.4,250.478v-2.6h1.811c0,.158.079.551.079,1.26a1.9,1.9,0,0,1,1.969-1.339v2.126c-1.181,0-1.89.236-1.89,1.733v4.016h-1.89v-5.2Z" transform="translate(-110.627 -244.965)"/><path class="a" d="M128.155,253.885a12.757,12.757,0,0,0,.079,1.733H126.5c0-.158-.079-.473-.079-.63a1.789,1.789,0,0,1-1.654.788,2.025,2.025,0,0,1-1.969-2.284h0c0-1.654,1.181-2.52,2.993-2.52h.473v-.788c0-.473-.079-.866-.709-.866s-.709.394-.709.866h-1.811c0-1.1.551-2.284,2.6-2.284,1.654,0,2.441.788,2.441,2.205v3.78Zm-1.811-1.654h-.473c-.866,0-1.26.394-1.26,1.024h0a.759.759,0,0,0,.788.866c.788,0,.945-.551.945-1.575Z" transform="translate(-111.775 -244.986)"/><path class="a" d="M136.67,244.357v10.474h-1.811c0-.158-.079-.551-.079-.788-.236.551-.63.866-1.654.866-1.575,0-2.126-1.418-2.126-3.78v-.63c0-2.126.709-3.623,2.441-3.623a1.439,1.439,0,0,1,1.339.551V244.2h1.89Zm-3.7,6.3v.63c0,1.5.236,2.126.945,2.126.788,0,.945-.63.945-2.205v-.473c0-1.5-.079-2.048-.866-2.048C133.284,248.61,132.969,249.083,132.969,250.658Z" transform="translate(-113.517 -244.2)"/><path class="a" d="M141.411,252.21v.236c0,.788.079,1.733.945,1.733a.826.826,0,0,0,.866-.945h1.811a2.458,2.458,0,0,1-2.678,2.52c-2.441,0-2.756-1.969-2.756-3.78V251.5c0-2.126.788-3.7,2.835-3.7,2.126,0,2.756,1.575,2.756,3.465v1.024h-3.78Zm1.89-1.339v-.158c0-.63-.079-1.418-.866-1.418-.866,0-.945.866-.945,1.418v.158Z" transform="translate(-115.345 -244.965)"/><path class="a" d="M152.59,253.213h0c0,.551.158,1.024.866,1.024a.626.626,0,0,0,.709-.709c0-.473-.158-.788-1.1-1.181-1.733-.709-2.126-1.339-2.126-2.441a2.175,2.175,0,0,1,2.441-2.205,2.216,2.216,0,0,1,2.441,2.441v.079h-1.811v-.079c0-.315-.079-.945-.709-.945a.58.58,0,0,0-.63.63c0,.473.236.63,1.1,1.024,1.575.63,2.205,1.26,2.205,2.52,0,1.5-.945,2.363-2.678,2.363a2.282,2.282,0,0,1-2.6-2.441v-.079Z" transform="translate(-117.703 -244.944)"/><path class="a" d="M160.211,252.21v.236c0,.788.079,1.733.945,1.733a.826.826,0,0,0,.866-.945h1.811a2.458,2.458,0,0,1-2.678,2.52c-2.441,0-2.756-1.969-2.756-3.78V251.5c0-2.126.788-3.7,2.835-3.7,2.126,0,2.756,1.575,2.756,3.465v1.024h-3.78Zm1.811-1.339v-.158c0-.63-.079-1.418-.866-1.418-.866,0-.945.866-.945,1.418v.158Z" transform="translate(-119.34 -244.965)"/><path class="a" d="M171.97,244.357v10.474h-1.811c0-.158-.079-.551-.079-.788-.236.551-.63.866-1.654.866-1.575,0-2.126-1.418-2.126-3.78v-.63c0-2.126.709-3.623,2.441-3.623a1.439,1.439,0,0,1,1.339.551V244.2h1.89Zm-3.7,6.3v.63c0,1.5.236,2.126.945,2.126.788,0,.945-.63.945-2.205v-.473c0-1.5-.079-2.048-.866-2.048C168.584,248.61,168.269,249.083,168.269,250.658Z" transform="translate(-121.018 -244.2)"/><path class="a" d="M183.77,244.357v10.474h-1.811c0-.158-.079-.551-.079-.788-.236.551-.63.866-1.654.866-1.575,0-2.126-1.418-2.126-3.78v-.63c0-2.126.709-3.623,2.441-3.623a1.439,1.439,0,0,1,1.339.551V244.2h1.89Zm-3.7,6.3v.63c0,1.5.236,2.126.945,2.126.788,0,.945-.63.945-2.205v-.473c0-1.5-.079-2.048-.866-2.048C180.384,248.61,180.069,249.083,180.069,250.658Z" transform="translate(-123.526 -244.2)"/><path class="a" d="M187.1,247.156h1.89v7.718H187.1Zm0-2.756h1.89v1.733H187.1Z" transform="translate(-125.438 -244.242)"/><path class="a" d="M196.255,253.885a12.757,12.757,0,0,0,.079,1.733H194.6c0-.158-.079-.473-.079-.63a1.789,1.789,0,0,1-1.654.788,2.025,2.025,0,0,1-1.969-2.284h0c0-1.654,1.181-2.52,2.993-2.52h.473v-.788c0-.473-.079-.866-.709-.866s-.709.394-.709.866h-1.811c0-1.1.551-2.284,2.6-2.284,1.654,0,2.441.788,2.441,2.205v3.78Zm-1.811-1.654h-.473c-.866,0-1.26.394-1.26,1.024h0a.759.759,0,0,0,.788.866c.788,0,.945-.551.945-1.575v-.315Z" transform="translate(-126.246 -244.986)"/><path class="a" d="M199.6,250.141v-2.284h1.811c0,.158.079.473.079.709a1.769,1.769,0,0,1,1.654-.866,1.509,1.509,0,0,1,1.5.945,1.967,1.967,0,0,1,1.811-.945c1.1,0,1.89.551,1.89,2.284v5.591H206.53V250.3c0-.551-.158-.945-.709-.945-.63,0-.788.473-.788,1.339v4.883h-1.89V250.3q0-.945-.709-.945c-.63,0-.866.394-.866,1.339v4.883h-1.89v-5.434Z" transform="translate(-128.094 -244.944)"/><path class="a" d="M215.7,250.32v-2.363h1.811c0,.158.079.473.079.709a1.7,1.7,0,0,1,1.654-.866c1.26,0,1.89.788,1.89,2.284V255.6h-1.89v-5.119c0-.709-.158-1.1-.788-1.1-.551,0-.866.315-.866,1.339V255.6H215.7V250.32Z" transform="translate(-131.515 -244.965)"/><path class="a" d="M229.591,251.4v.551c0,2.6-1.024,3.78-2.835,3.78s-2.756-1.1-2.756-3.7v-.63c0-2.52,1.1-3.7,2.914-3.7C228.568,247.779,229.591,248.96,229.591,251.4Zm-3.78,0v.63c0,1.339.236,2.126.945,2.126s.945-.788.945-2.126v-.63c0-1.418-.236-2.048-.945-2.048S225.811,249.984,225.811,251.4Z" transform="translate(-133.279 -244.944)"/><path class="a" d="M232.5,250.32v-2.363h1.811c0,.158.079.473.079.709a1.7,1.7,0,0,1,1.654-.866c1.26,0,1.89.788,1.89,2.284V255.6h-1.89v-5.119c0-.709-.158-1.1-.788-1.1-.551,0-.866.315-.866,1.339V255.6H232.5V250.32Z" transform="translate(-135.085 -244.965)"/></g><g transform="translate(1013.051 621.943)"><path class="a" d="M59.173,61.991H52.4V56.4H72.324v5.591H65.551V90.027H59.173Z" transform="translate(-52.4 -55.927)"/><path class="a" d="M87.779,75.773V90.027H81.4V56.4h10c5.985,0,9.529,2.914,9.529,9.056v.236c0,4.961-2.6,6.851-4.174,7.481,2.363,1.181,3.623,3.15,3.623,8.033v1.1a55.766,55.766,0,0,0,.394,7.639H94.63a34.812,34.812,0,0,1-.551-7.639V81.285c0-4.331-.945-5.591-4.41-5.591h-1.89Zm0-5.119h2.205c3.386,0,4.646-1.26,4.646-4.646v-.236c0-2.756-1.181-4.253-4.1-4.253H87.779v9.135Z" transform="translate(-58.562 -55.927)"/><path class="a" d="M116.2,81.994l-1.418,8.033H108.4L115.645,56.4h8.426L131.4,90.027H124.7l-1.418-8.033ZM122.26,76.4c-1.024-5.828-1.89-10.553-2.441-14.018h-.158c-.315,3.071-1.339,8.348-2.363,14.018Z" transform="translate(-64.3 -55.927)"/><path class="a" d="M141.3,56.4h8.741c8.505,0,11.576,5.119,11.576,14.963v2.52c0,10.08-2.756,16.144-11.891,16.144H141.3Zm6.379,28.429h1.89c4.174,0,5.434-2.993,5.434-10.789V71.284c0-6.536-1.1-9.529-5.434-9.529h-1.89Z" transform="translate(-71.291 -55.927)"/><path class="a" d="M178.979,56.4V90.027H172.6V56.4Z" transform="translate(-77.942 -55.927)"/><path class="a" d="M187.8,90.027V56.4h7.166c5.355,14.884,7.245,21.026,7.56,22.68h.079c-.315-3.938-.315-8.82-.315-14.333V56.4h5.67V90.027h-6.93c-5.513-15.671-7.4-22.286-7.8-23.783h-.079c.236,4.1.236,8.82.236,14.884v8.9H187.8Z" transform="translate(-81.171 -55.927)"/><path class="a" d="M239.533,89.9H234.65c-.158-.945-.236-1.733-.315-2.6-1.5,2.6-3.859,3.229-6.379,3.229-6.615,0-9.056-5.513-9.056-15.593V71.865c0-11.025,3.859-16.065,10.946-16.065,8.978,0,9.529,7.481,9.608,9.765V65.8h-6.3v-.394c-.079-1.418-.394-4.253-3.465-4.253-3.308,0-4.174,4.331-4.174,10.4v3.386c0,6.694.866,10.08,4.1,10.08,2.678,0,3.544-2.048,3.544-6.3V76.2h-3.938V70.92h10.238V89.9Z" transform="translate(-87.78 -55.8)"/></g><g transform="translate(1013.681 588.553)"><path class="a" d="M58.713,35.056v.394c.236,2.284,1.024,4.174,3.465,4.174,2.363,0,3.071-1.654,3.071-3.544,0-2.441-1.1-3.7-4.646-5.591-4.8-2.441-6.694-4.489-6.694-8.978,0-4.725,2.756-8.111,8.269-8.111,6.694,0,8.19,4.489,8.269,8.269v.315H64.934v-.315c-.158-1.811-.551-3.859-2.835-3.859-1.811,0-2.6,1.181-2.6,3.15s.788,2.914,4.016,4.568c5.2,2.6,7.481,4.961,7.481,10,0,4.568-2.678,8.505-8.978,8.505-6.773,0-8.741-4.331-8.82-8.663v-.315Z" transform="translate(-53.2 -13.4)"/><path class="a" d="M83.385,18.961H77.4V14H95.04v4.961H89.055V43.689h-5.67Z" transform="translate(-58.342 -13.527)"/><path class="a" d="M107.23,36.5l-1.26,7.088H100.3L106.679,13.9h7.4l6.458,29.689h-5.906l-1.26-7.088Zm5.276-4.883c-.866-5.2-1.654-9.371-2.126-12.443h-.157c-.315,2.678-1.181,7.4-2.126,12.443Z" transform="translate(-63.208 -13.506)"/><path class="a" d="M134.991,31.089v12.6H129.4V14h8.82c5.276,0,8.426,2.6,8.426,8.033v.236c0,4.331-2.284,6.064-3.7,6.615,2.126,1.024,3.229,2.756,3.229,7.088v.945a44.782,44.782,0,0,0,.394,6.773h-5.434a32.352,32.352,0,0,1-.473-6.773V36.05c0-3.859-.866-4.961-3.938-4.961Zm0-4.489h1.89c2.993,0,4.1-1.1,4.1-4.1v-.158c0-2.441-1.024-3.78-3.623-3.78h-2.441V26.6Z" transform="translate(-69.392 -13.527)"/><path class="a" d="M159.185,18.961H153.2V14h17.64v4.961h-5.985V43.689h-5.67Z" transform="translate(-74.449 -13.527)"/></g></g></svg>