<svg xmlns="http://www.w3.org/2000/svg" width="27" height="27" viewBox="0 0 27 27"><defs><style>.a{fill:#3c3b37;}</style></defs><g transform="translate(0 -6.028)"><g transform="translate(0 6.028)"><g transform="translate(0 0)"><path class="a" d="M99.468,350.322a2.815,2.815,0,1,0,2.815,2.815A2.815,2.815,0,0,0,99.468,350.322Zm0,4.379a1.564,1.564,0,1,1,1.564-1.564A1.564,1.564,0,0,1,99.468,354.7Z" transform="translate(-90.857 -328.952)"/><path class="a" d="M298,350.322a2.815,2.815,0,1,0,2.815,2.815A2.815,2.815,0,0,0,298,350.322Zm0,4.379a1.564,1.564,0,1,1,1.564-1.564A1.564,1.564,0,0,1,298,354.7Z" transform="translate(-278.319 -328.952)"/><path class="a" d="M26.872,10.386a.773.773,0,0,0-.5-.26L5.982,9.833,5.418,8.044A2.893,2.893,0,0,0,2.725,6.028H.626a.651.651,0,0,0,0,1.3h2.1a1.636,1.636,0,0,1,1.5,1.138L8.206,20.922l-.313.748A3.225,3.225,0,0,0,8.174,24.5a2.89,2.89,0,0,0,2.349,1.366H22.707a.651.651,0,0,0,0-1.3H10.523a1.586,1.586,0,0,1-1.315-.781,1.848,1.848,0,0,1-.157-1.561l.251-.585,13.186-1.431a3.492,3.492,0,0,0,2.975-2.732l1.5-6.537A.569.569,0,0,0,26.872,10.386Zm-2.631,6.8a2.157,2.157,0,0,1-1.91,1.724L9.3,20.3,6.389,11.134l19.2.293Z" transform="translate(0 -6.028)"/></g></g></g></svg>