<svg xmlns="http://www.w3.org/2000/svg" xmlns:xlink="http://www.w3.org/1999/xlink" width="237.092" height="26" viewBox="0 0 237.092 26"><defs><style>.a{fill:none;}.b{isolation:isolate;clip-path:url(#a);}.c{fill:#eb8a2f;font-size:21px;font-family:HelveticaNeueW23foSKY-Bd, Helvetica Neue W23 for SKY;}.d{fill:#eb8a2e;}.e{font-size:19px;font-family:HelveticaNeueW23forSKY-Reg, Helvetica Neue W23 for SKY;opacity:0.8;}</style><clipPath id="a"><rect class="a" y="-7" width="30" height="26"/></clipPath></defs><g transform="translate(-768.908 -286)"><g transform="translate(715.908 -171)"><g class="b" transform="translate(53 464)"><text class="c" transform="translate(0 12)"><tspan x="0" y="0">4.5</tspan></text></g><g transform="translate(85.858 464)"><path class="d" d="M15.321,7.742H10.86L9.5,3.7a.491.491,0,0,0-.922,0L7.227,7.742H2.735a.487.487,0,0,0-.485.485.357.357,0,0,0,.009.082.466.466,0,0,0,.2.343l3.666,2.584L4.722,15.327a.487.487,0,0,0,.167.546.469.469,0,0,0,.273.118.6.6,0,0,0,.3-.109l3.578-2.55,3.578,2.55a.568.568,0,0,0,.3.109.436.436,0,0,0,.27-.118.481.481,0,0,0,.167-.546l-1.407-4.091,3.636-2.608.088-.076a.464.464,0,0,0-.358-.81Z" transform="translate(-2.25 -3.375)"/><path class="d" d="M15.321,7.742H10.86L9.5,3.7a.491.491,0,0,0-.922,0L7.227,7.742H2.735a.487.487,0,0,0-.485.485.357.357,0,0,0,.009.082.466.466,0,0,0,.2.343l3.666,2.584L4.722,15.327a.487.487,0,0,0,.167.546.469.469,0,0,0,.273.118.6.6,0,0,0,.3-.109l3.578-2.55,3.578,2.55a.568.568,0,0,0,.3.109.436.436,0,0,0,.27-.118.481.481,0,0,0,.167-.546l-1.407-4.091,3.636-2.608.088-.076a.464.464,0,0,0-.358-.81Z" transform="translate(13.369 -3.375)"/><path class="d" d="M15.321,7.742H10.86L9.5,3.7a.491.491,0,0,0-.922,0L7.227,7.742H2.735a.487.487,0,0,0-.485.485.357.357,0,0,0,.009.082.466.466,0,0,0,.2.343l3.666,2.584L4.722,15.327a.487.487,0,0,0,.167.546.469.469,0,0,0,.273.118.6.6,0,0,0,.3-.109l3.578-2.55,3.578,2.55a.568.568,0,0,0,.3.109.436.436,0,0,0,.27-.118.481.481,0,0,0,.167-.546l-1.407-4.091,3.636-2.608.088-.076a.464.464,0,0,0-.358-.81Z" transform="translate(27.567 -3.375)"/><path class="d" d="M15.321,7.742H10.86L9.5,3.7a.491.491,0,0,0-.922,0L7.227,7.742H2.735a.487.487,0,0,0-.485.485.357.357,0,0,0,.009.082.466.466,0,0,0,.2.343l3.666,2.584L4.722,15.327a.487.487,0,0,0,.167.546.469.469,0,0,0,.273.118.6.6,0,0,0,.3-.109l3.578-2.55,3.578,2.55a.568.568,0,0,0,.3.109.436.436,0,0,0,.27-.118.481.481,0,0,0,.167-.546l-1.407-4.091,3.636-2.608.088-.076a.464.464,0,0,0-.358-.81Z" transform="translate(43.186 -3.375)"/><path class="d" d="M17.383,9.31,12.5,8.9,10.59,4.5,8.682,8.9,3.8,9.31,7.5,12.448,6.392,17.116l4.2-2.474,4.2,2.474-1.11-4.667Zm-6.237,4.431-.556-.328V7.2l.917,2.115.253.583.646.054,2.349.2-1.782,1.509-.49.415.147.617.534,2.244Z" transform="translate(55.838 -4.5)"/></g></g><text class="e" transform="translate(885 305)"><tspan x="0" y="0">(4,220 ratings)</tspan></text></g></svg>