<svg xmlns="http://www.w3.org/2000/svg" xmlns:xlink="http://www.w3.org/1999/xlink" width="84" height="13" viewBox="0 0 84 13"><defs><style>.a{fill:none;}.b{isolation:isolate;clip-path:url(#a);}.c{fill:#eb8a2f;font-size:15px;font-family:HelveticaNeueW23foSKY-Bd, Helvetica Neue W23 for SKY;}.d{fill:#eb8a2e;}</style><clipPath id="a"><rect class="a" y="1" width="21" height="13"/></clipPath></defs><g transform="translate(-54 -518)"><g class="b" transform="translate(54 517)"><text class="c" transform="translate(0 12)"><tspan x="0" y="0">4.5</tspan></text></g><path class="d" d="M11.456,6.451H8.314L7.359,3.6a.346.346,0,0,0-.649,0L5.755,6.451H2.592a.343.343,0,0,0-.342.342.251.251,0,0,0,.006.058.328.328,0,0,0,.143.241l2.582,1.82-.991,2.881a.343.343,0,0,0,.117.384.33.33,0,0,0,.192.083.419.419,0,0,0,.214-.077l2.52-1.8,2.52,1.8a.4.4,0,0,0,.214.077.307.307,0,0,0,.19-.083.339.339,0,0,0,.117-.384L9.085,8.911l2.561-1.837.062-.053a.327.327,0,0,0-.252-.57Z" transform="translate(84.182 515.682)"/><path class="d" d="M11.456,6.451H8.314L7.359,3.6a.346.346,0,0,0-.649,0L5.755,6.451H2.592a.343.343,0,0,0-.342.342.251.251,0,0,0,.006.058.328.328,0,0,0,.143.241l2.582,1.82-.991,2.881a.343.343,0,0,0,.117.384.33.33,0,0,0,.192.083.419.419,0,0,0,.214-.077l2.52-1.8,2.52,1.8a.4.4,0,0,0,.214.077.307.307,0,0,0,.19-.083.339.339,0,0,0,.117-.384L9.085,8.911l2.561-1.837.062-.053a.327.327,0,0,0-.252-.57Z" transform="translate(95.182 515.682)"/><path class="d" d="M11.456,6.451H8.314L7.359,3.6a.346.346,0,0,0-.649,0L5.755,6.451H2.592a.343.343,0,0,0-.342.342.251.251,0,0,0,.006.058.328.328,0,0,0,.143.241l2.582,1.82-.991,2.881a.343.343,0,0,0,.117.384.33.33,0,0,0,.192.083.419.419,0,0,0,.214-.077l2.52-1.8,2.52,1.8a.4.4,0,0,0,.214.077.307.307,0,0,0,.19-.083.339.339,0,0,0,.117-.384L9.085,8.911l2.561-1.837.062-.053a.327.327,0,0,0-.252-.57Z" transform="translate(105.182 515.682)"/><path class="d" d="M11.456,6.451H8.314L7.359,3.6a.346.346,0,0,0-.649,0L5.755,6.451H2.592a.343.343,0,0,0-.342.342.251.251,0,0,0,.006.058.328.328,0,0,0,.143.241l2.582,1.82-.991,2.881a.343.343,0,0,0,.117.384.33.33,0,0,0,.192.083.419.419,0,0,0,.214-.077l2.52-1.8,2.52,1.8a.4.4,0,0,0,.214.077.307.307,0,0,0,.19-.083.339.339,0,0,0,.117-.384L9.085,8.911l2.561-1.837.062-.053a.327.327,0,0,0-.252-.57Z" transform="translate(116.182 515.682)"/><path class="d" d="M13.366,7.888,9.925,7.6,8.581,4.5,7.237,7.6,3.8,7.888l2.61,2.21-.782,3.287,2.957-1.743,2.957,1.743L10.756,10.1ZM8.973,11.009l-.392-.231V6.4l.646,1.49.178.411.455.038,1.654.139L10.259,9.538l-.345.292.1.435.376,1.58Z" transform="translate(124.635 514.557)"/></g></svg>