<svg xmlns="http://www.w3.org/2000/svg" width="26.707" height="24.229" viewBox="0 0 26.707 24.229"><defs><style>.a{fill:#3c3b37;stroke:#3c3b37;stroke-linecap:round;stroke-linejoin:round;}</style></defs><g transform="translate(-22.557 125.729)"><g transform="translate(23.057 -125.229)"><g transform="translate(0 0)"><path class="a" d="M12.887,23.229a1.2,1.2,0,0,1-.879-.382L2.067,12.383a7.5,7.5,0,0,1,0-10.223A6.8,6.8,0,0,1,6.975,0a6.885,6.885,0,0,1,4.954,2.135l.963,1.046.968-1.02a6.8,6.8,0,0,1,9.888,0,7.507,7.507,0,0,1,0,10.238L13.734,22.878a1.2,1.2,0,0,1-.848.351ZM6.975.628A6.152,6.152,0,0,0,2.491,2.569a6.869,6.869,0,0,0,0,9.359l9.972,10.49a.6.6,0,0,0,.827,0l10-10.479a6.864,6.864,0,0,0,0-9.37,6.184,6.184,0,0,0-8.978,0l-1.423,1.5-1.418-1.5A6.247,6.247,0,0,0,6.975.628Z" transform="translate(-0.057 0)"/></g></g></g></svg>