<svg xmlns="http://www.w3.org/2000/svg" xmlns:xlink="http://www.w3.org/1999/xlink" width="76" height="124" viewBox="0 0 76 124"><defs><style>.a,.c{fill:#fff;}.a{stroke:#707070;}.b{opacity:0.75;clip-path:url(#a);}</style><clipPath id="a"><rect class="a" width="76" height="124" transform="translate(0 -0.008)"/></clipPath></defs><g class="b" transform="translate(0 0.008)"><g transform="translate(0 23.896)"><g transform="translate(0 0)"><path class="c" d="M42.566,38.121,75.229,5.457A3.173,3.173,0,1,0,70.82.892L70.742.97,38.079,33.633,5.415.97A3.173,3.173,0,0,0,.928,5.457L33.592,38.121.928,70.784a3.173,3.173,0,0,0,4.487,4.487L38.079,42.608,70.742,75.271a3.173,3.173,0,0,0,4.487-4.487Z" transform="translate(0.001 -0.001)"/></g></g></g></svg>