<svg xmlns="http://www.w3.org/2000/svg" width="22.527" height="22.521" viewBox="0 0 22.527 22.521"><defs><style>.a{fill:#e30000;}</style></defs><g transform="translate(0 0)"><g transform="translate(0 0)"><path class="a" d="M19.233,3.364a11.261,11.261,0,1,0,0,15.932A11.28,11.28,0,0,0,19.233,3.364ZM18,18.062A9.521,9.521,0,1,1,18,4.6,9.532,9.532,0,0,1,18,18.062Z" transform="translate(0 -0.07)"/></g></g><g transform="translate(7.358 7.248)"><path class="a" d="M174.9,171.237l-2.471-2.467L174.9,166.3a.873.873,0,1,0-1.234-1.235l-2.472,2.469-2.472-2.469a.873.873,0,0,0-1.234,1.235l2.471,2.467-2.471,2.467a.873.873,0,0,0,1.234,1.235L171.2,170l2.472,2.469a.873.873,0,1,0,1.234-1.235Z" transform="translate(-167.236 -164.813)"/></g></svg>