<svg xmlns="http://www.w3.org/2000/svg" width="457" height="337" viewBox="0 0 457 337"><defs><style>.a,.c,.d{fill:none;}.b{fill:#a3a3a3;font-size:10px;font-family:Roboto-Regular, Roboto;}.c{stroke:#f0f0f0;}.d{stroke:#a6cee3;stroke-width:2px;}.e{fill:#a6cee3;stroke:rgba(0,0,0,0);}.f{stroke:none;}</style></defs><g transform="translate(-785 -837)"><rect class="a" width="455" height="334" transform="translate(785 837)"/><text class="b" transform="translate(813 1171)"><tspan x="-8.545" y="0">Dec</tspan></text><text class="b" transform="translate(904 1171)"><tspan x="-11.23" y="0">2020</tspan></text><text class="b" transform="translate(996 1171)"><tspan x="-8.777" y="0">Mar</tspan></text><text class="b" transform="translate(1087 1171)"><tspan x="-7.759" y="0">Apr</tspan></text><text class="b" transform="translate(1179 1171)"><tspan x="-9.414" y="0">May</tspan></text><text class="b" transform="translate(785 1146)"><tspan x="12.385" y="10">0</tspan></text><text class="b" transform="translate(785 1084)"><tspan x="6.77" y="10">20</tspan></text><text class="b" transform="translate(785 1022)"><tspan x="6.77" y="10">40</tspan></text><text class="b" transform="translate(785 960)"><tspan x="6.77" y="10">60</tspan></text><text class="b" transform="translate(785 898)"><tspan x="6.77" y="10">80</tspan></text><text class="b" transform="translate(785 837)"><tspan x="1.154" y="10">100</tspan></text><path class="c" d="M813,842v309"/><path class="c" d="M904,842v309"/><path class="c" d="M996,842v309"/><path class="c" d="M1087,842v309"/><path class="c" d="M1179,842v309"/><path class="c" d="M1239,842v309"/><path class="c" d="M813,1151h426"/><path class="c" d="M813,1089h426"/><path class="c" d="M813,1027h426"/><path class="c" d="M813,965h426"/><path class="c" d="M813,903h426"/><path class="c" d="M813,842h426"/><path class="d" d="M813,869s15,112,30,112,15,27,30,27c16,0,16-21,31-21s15-62,30-62,15,158,31,158c15,0,15-226,30-226s15,284,31,284c15,0,15-213,30-213s15,179,30,179c16,0,16-198,31-198s15,115,30,115,15,77,31,77c15,0,15-219,30-219s30,120,30,120"/><g class="e" transform="translate(809 865)"><circle class="f" cx="4" cy="4" r="4"/><circle class="a" cx="4" cy="4" r="3.5"/></g><g class="e" transform="translate(839 977)"><circle class="f" cx="4" cy="4" r="4"/><circle class="a" cx="4" cy="4" r="3.5"/></g><g class="e" transform="translate(869 1004)"><circle class="f" cx="4" cy="4" r="4"/><circle class="a" cx="4" cy="4" r="3.5"/></g><g class="e" transform="translate(900 983)"><circle class="f" cx="4" cy="4" r="4"/><circle class="a" cx="4" cy="4" r="3.5"/></g><g class="e" transform="translate(930 921)"><circle class="f" cx="4" cy="4" r="4"/><circle class="a" cx="4" cy="4" r="3.5"/></g><g class="e" transform="translate(961 1079)"><circle class="f" cx="4" cy="4" r="4"/><circle class="a" cx="4" cy="4" r="3.5"/></g><g class="e" transform="translate(991 853)"><circle class="f" cx="4" cy="4" r="4"/><circle class="a" cx="4" cy="4" r="3.5"/></g><g class="e" transform="translate(1022 1137)"><circle class="f" cx="4" cy="4" r="4"/><circle class="a" cx="4" cy="4" r="3.5"/></g><g class="e" transform="translate(1052 924)"><circle class="f" cx="4" cy="4" r="4"/><circle class="a" cx="4" cy="4" r="3.5"/></g><g class="e" transform="translate(1082 1103)"><circle class="f" cx="4" cy="4" r="4"/><circle class="a" cx="4" cy="4" r="3.5"/></g><g class="e" transform="translate(1113 905)"><circle class="f" cx="4" cy="4" r="4"/><circle class="a" cx="4" cy="4" r="3.5"/></g><g class="e" transform="translate(1143 1020)"><circle class="f" cx="4" cy="4" r="4"/><circle class="a" cx="4" cy="4" r="3.5"/></g><g class="e" transform="translate(1174 1097)"><circle class="f" cx="4" cy="4" r="4"/><circle class="a" cx="4" cy="4" r="3.5"/></g><g class="e" transform="translate(1204 878)"><circle class="f" cx="4" cy="4" r="4"/><circle class="a" cx="4" cy="4" r="3.5"/></g><g class="e" transform="translate(1234 998)"><circle class="f" cx="4" cy="4" r="4"/><circle class="a" cx="4" cy="4" r="3.5"/></g></g></svg>