<svg xmlns="http://www.w3.org/2000/svg" width="9.63" height="9.628" viewBox="0 0 9.63 9.628"><defs><style>.a{fill:#767676;}</style></defs><path class="a" d="M4.815-6.6A2.465,2.465,0,0,0,2.346-4.127,2.465,2.465,0,0,0,4.815-1.659,2.465,2.465,0,0,0,7.283-4.127,2.465,2.465,0,0,0,4.815-6.6Zm0,4.073a1.608,1.608,0,0,1-1.6-1.6,1.606,1.606,0,0,1,1.6-1.6,1.606,1.606,0,0,1,1.6,1.6A1.608,1.608,0,0,1,4.815-2.522ZM7.96-6.7a.576.576,0,0,0-.576-.576.576.576,0,0,0-.576.576.574.574,0,0,0,.576.576A.574.574,0,0,0,7.96-6.7Zm1.635.584A2.849,2.849,0,0,0,8.817-8.13,2.868,2.868,0,0,0,6.8-8.907c-.795-.045-3.178-.045-3.972,0A2.864,2.864,0,0,0,.81-8.132,2.859,2.859,0,0,0,.032-6.114c-.045.795-.045,3.178,0,3.972A2.849,2.849,0,0,0,.81-.125,2.872,2.872,0,0,0,2.827.653C3.622.7,6,.7,6.8.653A2.849,2.849,0,0,0,8.817-.125a2.868,2.868,0,0,0,.778-2.017C9.64-2.937,9.64-5.317,9.595-6.112ZM8.568-1.289a1.625,1.625,0,0,1-.915.915A10.611,10.611,0,0,1,4.815-.18,10.693,10.693,0,0,1,1.977-.374a1.625,1.625,0,0,1-.915-.915A10.611,10.611,0,0,1,.868-4.127a10.693,10.693,0,0,1,.193-2.838,1.625,1.625,0,0,1,.915-.915,10.611,10.611,0,0,1,2.838-.193,10.693,10.693,0,0,1,2.838.193,1.625,1.625,0,0,1,.915.915,10.611,10.611,0,0,1,.193,2.838A10.6,10.6,0,0,1,8.568-1.289Z" transform="translate(0.002 8.941)"/></svg>